<?xml version="1.0" encoding="utf-8"?>
<!-- Generator: Adobe Illustrator 25.4.1, SVG Export Plug-In . SVG Version: 6.00 Build 0)  -->
<svg version="1.1" id="Layer_1" xmlns="http://www.w3.org/2000/svg" xmlns:xlink="http://www.w3.org/1999/xlink" x="0px" y="0px"
	 viewBox="0 0 89.28 85.41" style="enable-background:new 0 0 89.28 85.41;" xml:space="preserve">
<path d="M60.71,26.92l26.41,4.1c2.08,0.32,2.88,2.89,1.36,4.34L69.17,53.83c-0.6,0.58-0.88,1.41-0.75,2.24l4.26,26.38
	c0.34,2.08-1.86,3.64-3.71,2.64L45.44,72.43c-0.74-0.4-1.62-0.4-2.36-0.02L19.3,84.62c-1.87,0.96-4.03-0.64-3.66-2.71l4.77-26.3
	c0.15-0.82-0.12-1.66-0.71-2.25L0.75,34.52c-1.49-1.48-0.64-4.03,1.45-4.31l26.49-3.59c0.83-0.11,1.55-0.62,1.92-1.37L42.67,1.39
	c0.95-1.88,3.64-1.85,4.55,0.04l11.6,24.08C59.18,26.27,59.89,26.79,60.71,26.92z"/>
</svg>
