<?xml version="1.0" encoding="utf-8"?>
<!-- Generator: Adobe Illustrator 25.4.1, SVG Export Plug-In . SVG Version: 6.00 Build 0)  -->
<svg version="1.1" id="Layer_1" xmlns="http://www.w3.org/2000/svg" xmlns:xlink="http://www.w3.org/1999/xlink" x="0px" y="0px"
	 viewBox="0 0 350 350" style="enable-background:new 0 0 350 350;" xml:space="preserve">
<style type="text/css">
	.st0{fill:url(#SVGID_1_);}
	.st1{fill:url(#SVGID_00000130609792439589511640000007161479665358413723_);}
	.st2{fill:url(#SVGID_00000098908994267024187760000014666708901037794433_);}
	.st3{fill:url(#SVGID_00000155868859933739074230000011599090787313384383_);}
	.st4{fill:url(#SVGID_00000154403637786905367860000010555906875000868782_);}
	.st5{fill:url(#SVGID_00000171720444417814094960000008302703371911778693_);}
	.st6{fill:#D7E8EF;}
	.st7{fill:#EA845C;}
	.st8{fill:url(#SVGID_00000160173683756358736480000012851317397202268074_);}
	.st9{fill:#BDD3DD;}
	.st10{fill:url(#SVGID_00000180364759030012262970000007645473694115247796_);}
	.st11{fill:url(#SVGID_00000145022920180264034070000014975944984982996637_);}
	.st12{fill:#FFBD91;}
	.st13{fill:url(#SVGID_00000024690304272005416170000004433594398350479272_);}
	.st14{fill:#002745;}
	.st15{fill:url(#SVGID_00000062166535792859643830000012269301773658842789_);}
	.st16{fill:url(#SVGID_00000163065127244884613640000004152562951893209775_);}
	.st17{fill:url(#SVGID_00000041255106509164924810000017386600308720485271_);}
	.st18{fill:url(#SVGID_00000147190118359547357710000000478593170802903937_);}
	.st19{fill:url(#SVGID_00000066512833669659733100000000154439429270063017_);}
	.st20{fill:url(#SVGID_00000087378110125125963280000018247224164927608757_);}
	.st21{fill:url(#SVGID_00000106867929059282618960000006185430049948570798_);}
</style>
<g id="BACKGROUND">
</g>
<g>
	<g>
		<linearGradient id="SVGID_1_" gradientUnits="userSpaceOnUse" x1="175" y1="84.3083" x2="175" y2="299.7">
			<stop  offset="0" style="stop-color:#9EB7C7"/>
			<stop  offset="0.1264" style="stop-color:#B3C9D6"/>
			<stop  offset="0.3185" style="stop-color:#CDE0E8"/>
			<stop  offset="0.4326" style="stop-color:#D7E8EF"/>
			<stop  offset="1" style="stop-color:#9EB7C7"/>
		</linearGradient>
		<path class="st0" d="M175,321.5c-47.9,0-92.82-25.63-117.23-66.88c-12.38-20.9-18.93-44.86-18.93-69.28
			c0-75.08,61.08-136.16,136.16-136.16s136.16,61.08,136.16,136.16c0,24.42-6.55,48.38-18.93,69.28
			C267.82,295.87,222.9,321.5,175,321.5z"/>
	</g>
	<g>
		
			<radialGradient id="SVGID_00000176721302952560838610000009401031222940923535_" cx="175" cy="185.3406" r="127.6175" gradientUnits="userSpaceOnUse">
			<stop  offset="0" style="stop-color:#0087FF"/>
			<stop  offset="1" style="stop-color:#9635EE"/>
		</radialGradient>
		<path style="fill:url(#SVGID_00000176721302952560838610000009401031222940923535_);" d="M302.62,185.34
			c0,23.72-6.47,45.91-17.74,64.93c-22.22,37.53-63.11,62.69-109.88,62.69S87.33,287.8,65.12,250.27
			c-11.27-19.02-17.74-41.21-17.74-64.93c0-70.48,57.14-127.62,127.62-127.62S302.62,114.86,302.62,185.34z"/>
	</g>
	<g>
		
			<linearGradient id="SVGID_00000110438089021387302960000007446005975347198637_" gradientUnits="userSpaceOnUse" x1="175.0001" y1="302.4415" x2="175.0001" y2="85.857">
			<stop  offset="0" style="stop-color:#000000"/>
			<stop  offset="1" style="stop-color:#57595B"/>
		</linearGradient>
		<path style="fill:url(#SVGID_00000110438089021387302960000007446005975347198637_);" d="M58.74,132.65
			C90.86,107.73,131.19,92.88,175,92.88s84.14,14.85,116.26,39.77c-5.37-11.82-12.49-22.68-21.03-32.25
			c-4.95-2.58-10.01-4.99-15.18-7.18C229.69,82.5,202.76,77.06,175,77.06c-27.76,0-54.69,5.44-80.05,16.17
			c-5.18,2.19-10.24,4.59-15.18,7.18C71.23,109.97,64.1,120.83,58.74,132.65z"/>
		
			<linearGradient id="SVGID_00000043439756108425413710000010589359391925287857_" gradientUnits="userSpaceOnUse" x1="175" y1="302.4417" x2="175" y2="85.8579">
			<stop  offset="0" style="stop-color:#000000"/>
			<stop  offset="1" style="stop-color:#57595B"/>
		</linearGradient>
		<path style="fill:url(#SVGID_00000043439756108425413710000010589359391925287857_);" d="M47.46,189.84
			c28.69-39.33,75.13-64.9,127.54-64.9c52.41,0,98.85,25.57,127.54,64.9c0.05-1.49,0.08-2.99,0.08-4.5c0-5.99-0.42-11.88-1.22-17.66
			c-1.8-1.98-3.65-3.92-5.55-5.82c-15.65-15.65-33.95-28.01-54.31-36.63c-20.96-8.87-43.36-13.45-66.53-13.45
			c-23.17,0-45.57,4.58-66.53,13.45c-20.37,8.62-38.67,20.98-54.31,36.63c-1.9,1.9-3.75,3.84-5.55,5.82
			c-0.8,5.77-1.22,11.66-1.22,17.66C47.38,186.85,47.41,188.35,47.46,189.84z"/>
		
			<linearGradient id="SVGID_00000114043236561937152620000003873690493716331430_" gradientUnits="userSpaceOnUse" x1="175" y1="302.4414" x2="175" y2="85.857">
			<stop  offset="0" style="stop-color:#000000"/>
			<stop  offset="1" style="stop-color:#57595B"/>
		</linearGradient>
		<path style="fill:url(#SVGID_00000114043236561937152620000003873690493716331430_);" d="M228.01,157.25
			c-16.55-7.01-34.43-10.72-53.01-10.72c-18.58,0-36.46,3.71-53.01,10.72c-16.24,6.88-30.85,16.78-43.26,29.19
			c-10.53,10.53-19.25,22.65-25.85,36.01c1.46,4.81,3.19,9.49,5.19,14.04C76.48,189.94,121.9,157,175,157
			c53.1,0,98.52,32.93,116.93,79.48c1.99-4.55,3.73-9.24,5.19-14.04c-6.6-13.35-15.32-25.48-25.85-36.01
			C258.86,174.03,244.25,164.13,228.01,157.25z"/>
		
			<linearGradient id="SVGID_00000012454623580945334690000008855234070713467009_" gradientUnits="userSpaceOnUse" x1="175" y1="302.4414" x2="175" y2="85.8571">
			<stop  offset="0" style="stop-color:#000000"/>
			<stop  offset="1" style="stop-color:#57595B"/>
		</linearGradient>
		<path style="fill:url(#SVGID_00000012454623580945334690000008855234070713467009_);" d="M175,181.26
			c-49.83,0-91.35,36.12-99.83,83.55c2.14,2.69,4.39,5.3,6.74,7.81c5.04-46.97,44.79-83.55,93.09-83.55
			c48.31,0,88.06,36.58,93.09,83.55c2.35-2.51,4.6-5.11,6.74-7.81C266.35,217.39,224.83,181.26,175,181.26z"/>
	</g>
	<path class="st6" d="M288.48,243.74c-17.41-3.96-36.07-8.37-39.83-9.85c-0.51-0.21-0.98-0.45-1.38-0.77c0,0,0,0,0,0
		c-5.39-4.02-1.63-16.24-5.42-22.92c-2.76-4.87-10.34-5.01-14.94-4.59c-13.32,0-77.26,0-103.83,0c-1.75-0.16-3.94-0.23-6.12,0
		c0,0,0,0,0,0c-3.55,0.38-7.11,1.58-8.82,4.59c-3.8,6.7-0.03,18.93-5.43,22.94c0,0,0,0,0,0c-0.4,0.3-0.85,0.55-1.36,0.76
		c-3.76,1.49-22.42,5.89-39.83,9.85c1.14,2.21,2.33,4.39,3.6,6.52c22.22,37.53,63.11,62.69,109.88,62.69s87.67-25.16,109.88-62.69
		C286.15,248.13,287.34,245.95,288.48,243.74z M146.97,273.31c-0.05-1.04-0.07-2.05-0.08-3.04
		C146.9,271.25,146.92,272.27,146.97,273.31L146.97,273.31z M203.01,273.31L203.01,273.31c0.05-1.04,0.07-2.06,0.08-3.04
		C203.09,271.25,203.06,272.26,203.01,273.31z"/>
	<g>
		<path class="st7" d="M217.73,210.65v11.46c0,0-5.75,9.41-17.69,12.87c-11.95,3.44-18.15,6.2-18.15,8.26
			c0,2.08-0.12,9.42-6.55,9.42h-0.68c-6.43,0-6.55-7.35-6.55-9.42c0-2.06-6.2-4.82-18.15-8.26c-11.95-3.45-17.69-12.87-17.69-12.87
			v-11.57c0.05,0.05,0.1,0.1,0.15,0.15c10.11,10.69,24.11,19.81,42.47,19.81h0.35c18.27,0,32.24-9.03,42.33-19.66
			C217.62,210.77,217.67,210.71,217.73,210.65z"/>
	</g>
	<g>
		
			<linearGradient id="SVGID_00000053528822043093897790000008167634457448238773_" gradientUnits="userSpaceOnUse" x1="175" y1="246.6501" x2="175" y2="379.5054">
			<stop  offset="0" style="stop-color:#0099FF"/>
			<stop  offset="1" style="stop-color:#9635EE"/>
		</linearGradient>
		<path style="fill:url(#SVGID_00000053528822043093897790000008167634457448238773_);" d="M284.88,250.27
			c-22.22,37.53-63.11,62.69-109.88,62.69c-0.96,0-1.93-0.01-2.89-0.04c-0.4,0-0.82-0.01-1.22-0.04
			c-45.05-1.42-84.21-26.18-105.77-62.62c17.33-3.89,40.5-9.23,44.52-10.82c0.45-0.18,0.85-0.4,1.21-0.67
			c15.51,24.46,39.28,35.65,39.28,35.65c-1.38-29.65,17.98-31.2,17.98-31.2c0,1.9,0.1,8.21,5.05,9.26h0.01
			c0.17,0.05,0.35,0.07,0.55,0.1c0.1,0.01,0.2,0.02,0.31,0.04c0.21,0.01,0.42,0.02,0.63,0.02h0.68c0.12,0,0.24-0.01,0.37-0.01
			c0.11,0,0.21-0.01,0.31-0.02c5.77-0.49,5.88-7.38,5.88-9.39c0,0,19.35,1.55,17.97,31.2c0,0,23.78-11.21,39.28-35.67
			c0.35,0.28,0.77,0.5,1.22,0.68C244.38,241.04,267.55,246.37,284.88,250.27z"/>
	</g>
	<g>
		<path class="st9" d="M175.49,264.38c0,2.47,1.85,4.48,4.14,4.48c2.28,0,4.14-2.01,4.14-4.48c0-2.47-1.85-4.48-4.14-4.48
			C177.34,259.9,175.49,261.9,175.49,264.38z"/>
		<path class="st9" d="M176.01,252.61v0.02H176l-0.04,0.01l-0.17,0.04c-0.16,0.04-0.39,0.11-0.66,0.21
			c-0.55,0.19-1.29,0.55-2.03,1.12c-1.46,1.16-2.95,3.19-2.95,7.01v0.31c0.11,5.53,1.23,33.64,1.95,51.6c-0.4,0-0.82-0.01-1.22-0.04
			c-0.72-17.96-1.84-45.99-1.95-51.54v-0.33c-0.01-4.15,1.7-6.63,3.42-7.97c0.28-0.21,0.54-0.39,0.81-0.55h0.01
			c0.17,0.04,0.35,0.07,0.55,0.1c0.1,0.01,0.2,0.02,0.31,0.04c0.21,0.01,0.42,0.02,0.63,0.02h0.68c0.12,0,0.24-0.01,0.37-0.01
			C175.81,252.63,175.92,252.62,176.01,252.61z"/>
	</g>
	<g>
		
			<linearGradient id="SVGID_00000120532361423160188070000013777050795295841666_" gradientUnits="userSpaceOnUse" x1="210.5205" y1="220.1534" x2="210.5205" y2="356.3476">
			<stop  offset="0" style="stop-color:#0087FF"/>
			<stop  offset="1" style="stop-color:#9635EE"/>
		</linearGradient>
		<path style="fill:url(#SVGID_00000120532361423160188070000013777050795295841666_);" d="M234.34,218.43
			c3.36,5.93,0.02,16.78,4.81,20.35c-15.5,24.46-39.28,35.67-39.28,35.67c1.38-29.65-17.97-31.2-17.97-31.2
			c0-2.06,6.2-4.82,18.15-8.26c11.94-3.45,17.69-12.87,17.69-12.87v-7.3h0.06C217.8,214.81,230.72,212.05,234.34,218.43z"/>
	</g>
	<g>
		
			<linearGradient id="SVGID_00000155861066763299133980000008697566534211503793_" gradientUnits="userSpaceOnUse" x1="139.4734" y1="220.1534" x2="139.4734" y2="356.3476">
			<stop  offset="0" style="stop-color:#0087FF"/>
			<stop  offset="1" style="stop-color:#9635EE"/>
		</linearGradient>
		<path style="fill:url(#SVGID_00000155861066763299133980000008697566534211503793_);" d="M149.95,234.98
			c11.95,3.44,18.15,6.2,18.15,8.26c0,0-19.36,1.55-17.98,31.2c0,0-23.77-11.19-39.28-35.65c4.8-3.55,1.45-14.42,4.82-20.36
			c3.61-6.37,16.54-3.61,16.54-3.61h0.06v7.3C132.27,222.11,138,231.52,149.95,234.98z"/>
	</g>
	<path class="st12" d="M265.35,142.61c-3.08-2.7-6.19-3.11-8.87-2.55c-1.01,0.21-1.79,0.65-2.84,0.6c-1.13-0.06-2.22-0.41-3.29-0.75
		c-2.71-0.88-5.5-1.84-7.75-3.64c-1.08-0.87-1.74-2.01-2.76-2.94c-1.11-1.02-2.35-1.92-3.26-3.13c-1.68-2.22-2.67-4.86-2.73-7.66
		c-0.11-4.8,2.24-9.17,4.55-13.21c0.26-0.45,0.51-0.9,0.77-1.35c3.45-6.2-2.06-18.61-9.3-21.89c-7.24-3.27-18.61,4.99-40.33,7.24
		c-21.7,2.25-36.88,0.51-49.62-3.8c-7.41-2.49-18.86-5.71-24.1,2.31c-5.36,8.19,2.49,17.33,2.84,25.8
		c0.18,4.25-1.21,8.52-3.54,12.06c-1.31,1.99-3.18,3.5-4.7,5.32c-0.73,0.87-1.17,1.84-1.78,2.75c-0.74,1.11-1.86,2.1-2.8,3.03
		c-0.43,0.42-0.87,0.84-1.4,1.15c-0.41,0.24-0.86,0.4-1.32,0.55c-0.73,0.25-1.49,0.47-2.26,0.45c-1.36-0.03-2.13-1.03-3.18-1.72
		c-5.41-3.56-11.71-0.92-13.52,5.36c-1.94,6.74,2.04,15.25,5.2,21.01c4.63,8.45,12.85,12.24,22.28,9.81c0,0,6.46,18.08,20.63,33.13
		c10.12,10.75,24.17,19.96,42.61,19.96h0.35c18.38,0,32.4-9.14,42.5-19.85c14.26-15.07,20.74-33.24,20.74-33.24l0.09-0.11
		C256.61,190.22,273.79,150.01,265.35,142.61z M251.49,165.78c-0.39,1.12-1.12,1.84-2,2.29C250.36,167.62,251.1,166.9,251.49,165.78
		c0.09-0.27,0.15-0.53,0.18-0.77C251.64,165.25,251.58,165.51,251.49,165.78z"/>
	
		<radialGradient id="SVGID_00000090254898984015770000000018109567640098439579_" cx="163.3567" cy="92.0693" r="119.7449" gradientUnits="userSpaceOnUse">
		<stop  offset="0" style="stop-color:#4012A6"/>
		<stop  offset="1" style="stop-color:#002745"/>
	</radialGradient>
	<path style="fill:url(#SVGID_00000090254898984015770000000018109567640098439579_);" d="M262.31,73.22l13.73,6.84
		c0,0-1.78-11.66-14.65-23.84c-12.87-12.18-23.95-3.04-23.95-3.04s3.97-16.02-20.85-23.15c-24.82-7.12-63.41,12.63-79.5,19.76
		c-16.09,7.12-34.24-4.37-34.24-4.37s-0.23,10.12,4.83,17.47c0,0-13.33,2.76-20.91,2.29l11.94,10.11l-15.84,5.98
		c0,0,11.91,22.26,14.7,58.25c0.04,0.57,0.09,1.15,0.12,1.72c6.54,4.31,6.54,18.26,7.58,23.08c1.04,4.83,2.59,7.59,6.03,5.86
		c1.17-0.58,1.06-2.85,1.06-3.9c0.01-2.54-0.35-5.09-0.74-7.6c-0.94-6.04-3.14-12.19-2.67-18.35c0.15-1.94,0.71-3.92,1.83-5.54
		c1.15-1.65,2.77-2.86,3.95-4.54c2.56-3.64,4.11-8.14,3.92-12.62c-0.35-8.47-8.2-17.61-2.84-25.8c5.24-8.02,16.69-4.8,24.1-2.31
		c12.74,4.31,27.92,6.04,49.62,3.8c21.72-2.25,33.09-10.51,40.33-7.24c7.24,3.27,12.76,15.69,9.3,21.89
		c-2.15,3.87-4.55,7.72-5.17,12.19c-0.35,2.54-0.05,5.12,1.03,7.46c0.56,1.21,1.33,2.41,2.15,3.45c0.79,1.01,1.91,1.73,2.63,2.8
		c0.89,1.33,0.97,3.03,0.94,4.63c-0.04,1.9-0.19,3.81-0.46,5.69c-0.73,5.09-2.02,10.1-2.77,15.21c-0.34,2.33-0.66,4.71-0.62,7.08
		c0.02,1.02-0.05,3.13,1.07,3.69c2.34,1.17,3.81,0.28,4.82-1.93c0.49-1.04,0.88-2.38,1.21-3.93c0.37-1.71,0.6-4.56,1.04-7.73
		c0.55-3.91,1.42-8.3,3.23-11.58l0.04,0.01c0,0,3.48-3.97,8.18-4.96l-0.15-0.44c0,0,3.68-22.12,6.21-34.77
		c2.53-12.63-4.6-16.48-4.6-16.48l9.19,0.46L262.31,73.22z"/>
	<g>
		<path class="st7" d="M184.37,209.65c-0.01,3.7-18.75,3.69-18.74-0.01c-0.23-0.04-0.25-0.96,0-1c6.25-0.99,12.49-1.18,18.74-0.02
			C184.62,208.66,184.6,209.61,184.37,209.65z"/>
		<path class="st7" d="M184.93,185.44c-2.95,1.74-6.45,3.66-9.93,3.62c-3.49-0.01-6.95-1.89-9.94-3.63
			c-0.25-0.14,0.14-0.98,0.38-0.93c3.19,0.68,6.41,0.93,9.57,0.91c3.17,0,6.3-0.35,9.55-0.94
			C184.84,184.43,185.17,185.32,184.93,185.44z"/>
		<path class="st7" d="M162.67,201.47c-4.03-0.59-7.95-1.44-11.64-2.62c-0.59-0.2,0.1-1.27,0.68-1.18
			c3.86,0.51,7.78,0.83,11.68,1.05c3.89,0.22,7.78,0.32,11.64,0.31c1.94,0.03,3.87-0.06,5.81-0.07c1.92-0.12,3.87-0.11,5.79-0.27
			l2.91-0.18l2.89-0.26l1.47-0.12l1.46-0.18c0.97-0.11,1.95-0.22,2.93-0.32c0.66-0.07,1.28,1.05,0.69,1.23l-2.78,0.83
			c-0.47,0.14-0.94,0.28-1.42,0.41l-1.44,0.32l-2.94,0.64c-1,0.18-2.01,0.33-3.02,0.48c-2.01,0.35-4.08,0.47-6.13,0.68
			c-2.07,0.09-4.15,0.22-6.23,0.18C170.84,202.39,166.69,202.08,162.67,201.47z"/>
		<g>
			<path class="st7" d="M260.19,147.19c-0.1-0.12-0.29-0.11-0.45-0.08c-3.69,0.59-8.31,4.82-9.2,8.43
				c-0.21,0.87-0.27,1.79-0.01,2.66c0.26,0.87,0.9,1.44,1.24,2.27c0.45,1.06,0.37,2.34-0.2,3.34c-0.57,1-1.63,1.71-2.78,1.86
				c-0.42,0.06-0.85,0.04-1.27,0.11c-0.42,0.07-0.84,0.24-1.09,0.58c-1.28,1.74,2.74,2.34,3.67,2.34c1.4,0,2.82-0.28,3.96-1.16
				c1.01-0.78,1.62-2,1.83-3.25c0.46-2.72-1.01-5.15-0.8-7.9c0.21-2.77,1.43-5.48,3.49-7.37c0.46-0.42,0.95-0.8,1.41-1.22
				C260.17,147.64,260.34,147.38,260.19,147.19z"/>
			<path class="st7" d="M89.81,147.19c0.1-0.12,0.29-0.11,0.45-0.08c3.69,0.59,8.31,4.82,9.2,8.43c0.21,0.87,0.27,1.79,0.01,2.66
				c-0.26,0.87-0.9,1.44-1.24,2.27c-0.45,1.06-0.37,2.34,0.2,3.34c0.57,1,1.63,1.71,2.78,1.86c0.42,0.06,0.85,0.04,1.27,0.11
				c0.42,0.07,0.84,0.24,1.1,0.58c1.28,1.74-2.74,2.34-3.67,2.34c-1.4,0-2.82-0.28-3.96-1.16c-1.01-0.78-1.62-2-1.83-3.25
				c-0.46-2.72,1.01-5.15,0.8-7.9c-0.21-2.77-1.43-5.48-3.49-7.37c-0.46-0.42-0.95-0.8-1.41-1.22
				C89.83,147.64,89.66,147.38,89.81,147.19z"/>
		</g>
	</g>
	<g>
		<g>
			<g>
				<path class="st14" d="M241.86,246.15c0,0,0.59,0.06,1.62,0.17c1.02,0.15,2.5,0.29,4.25,0.59c1.74,0.3,3.79,0.6,5.97,1.02
					c2.18,0.4,4.48,0.9,6.79,1.39c2.3,0.53,4.6,1.05,6.74,1.61c2.15,0.53,4.13,1.13,5.84,1.6c1.71,0.46,3.11,0.96,4.1,1.26
					c0.98,0.34,1.54,0.53,1.54,0.53s-0.59-0.06-1.62-0.17c-1.02-0.15-2.5-0.29-4.25-0.59c-1.74-0.3-3.79-0.59-5.97-1.02
					c-2.18-0.4-4.48-0.9-6.79-1.39c-2.3-0.53-4.6-1.05-6.74-1.61c-2.15-0.54-4.13-1.13-5.84-1.6c-1.71-0.46-3.11-0.96-4.1-1.26
					C242.42,246.34,241.86,246.15,241.86,246.15z"/>
			</g>
		</g>
		<g>
			<g>
				<path class="st14" d="M108.14,246.15c0,0-0.54,0.19-1.49,0.51c-0.95,0.29-2.3,0.77-3.95,1.22c-1.65,0.45-3.55,1.03-5.62,1.55
					c-2.06,0.54-4.28,1.04-6.49,1.55c-2.22,0.47-4.44,0.95-6.54,1.33c-2.09,0.41-4.07,0.68-5.75,0.97c-1.68,0.29-3.11,0.41-4.1,0.56
					c-1,0.1-1.56,0.16-1.56,0.16s0.54-0.19,1.49-0.52c0.95-0.29,2.3-0.78,3.95-1.22c1.65-0.45,3.55-1.03,5.62-1.55
					c2.06-0.54,4.28-1.04,6.49-1.55c2.22-0.47,4.44-0.95,6.54-1.33c2.09-0.4,4.07-0.68,5.75-0.97c1.68-0.29,3.11-0.41,4.1-0.56
					C107.57,246.2,108.14,246.15,108.14,246.15z"/>
			</g>
		</g>
	</g>
	<g>
		<path class="st7" d="M232.41,148.56l7.36-1.27c0.19-1.03,0.37-2.06,0.52-3.1c0.15-1.08,0.26-2.16,0.34-3.24l-12.23,2.1
			c-4.97-5.28-12.02-8.58-19.86-8.58c-10.06,0-18.83,5.43-23.56,13.54c-8.78-3.75-18.71,0.03-18.71,0.03l-0.24,0.13
			c-4.7-8.19-13.54-13.7-23.66-13.7c-7.75,0-14.75,3.23-19.71,8.42c-0.04,0.05-0.08,0.1-0.13,0.14l-13.59-2.34
			c-0.13,2.09,0.04,4.17,0.36,6.25l9.22,1.58c-0.13,0.24-0.28,0.47-0.4,0.72c-1.94,3.75-3.04,7.99-3.04,12.51
			c0,15.07,12.22,27.29,27.29,27.29s27.29-12.22,27.29-27.29c0-2.49-0.33-4.91-0.96-7.2l0.5-0.15c0,0,5.68-3.45,12.91,0l0.12,0.04
			c-0.65,2.32-0.99,4.77-0.99,7.31c0,15.07,12.22,27.29,27.29,27.29c15.07,0,27.29-12.22,27.29-27.29c0-4.44-1.06-8.64-2.94-12.34
			C232.74,149.14,232.57,148.85,232.41,148.56z"/>
	</g>
	<g>
		<path class="st14" d="M184.79,145.61c4.97-8.33,14.2-13.98,24.7-13.98c8.18,0,15.41,3.43,20.35,8.9c1.77,1.95,3.24,4.13,4.36,6.53
			c1.76,3.76,2.65,8,2.43,12.46c-0.72,14.89-13.51,26.71-28.59,26.71c-15.07,0-27.24-11.82-27.17-26.71
			c0.01-2.54,0.37-5.01,1.05-7.35C182.58,149.84,183.55,147.63,184.79,145.61z M230.03,159.51c0.5-11.61-8.77-21.17-20.72-21.17
			c-11.95,0-21.73,9.56-21.85,21.17c-0.11,11.4,9.17,20.49,20.74,20.49C219.77,180,229.54,170.91,230.03,159.51z"/>
		<g>
			
				<radialGradient id="SVGID_00000011753016545951671200000002102954642636120750_" cx="219.3649" cy="165.5063" r="20.9915" gradientUnits="userSpaceOnUse">
				<stop  offset="0" style="stop-color:#6E7EFF"/>
				<stop  offset="1" style="stop-color:#0077F5"/>
			</radialGradient>
			<path style="fill:url(#SVGID_00000011753016545951671200000002102954642636120750_);" d="M209.31,138.33
				c11.95,0,21.22,9.56,20.72,21.17c-0.49,11.4-10.26,20.49-21.83,20.49c-11.57,0-20.85-9.09-20.74-20.49
				C187.58,147.9,197.35,138.33,209.31,138.33z"/>
		</g>
		<path class="st14" d="M184.79,145.61c-1.24,2.03-2.21,4.24-2.87,6.55l-0.13-0.04c-7.44-3.5-13.27,0-13.27,0l-0.51,0.15
			c-0.64-2.3-1.58-4.47-2.8-6.5l0.25-0.14C165.46,145.63,175.73,141.77,184.79,145.61z"/>
		<path class="st14" d="M120.2,140.36c4.94-5.37,12.12-8.73,20.21-8.73c10.56,0,19.85,5.72,24.8,14.14c1.21,2.03,2.16,4.2,2.8,6.5
			c0.66,2.32,1.01,4.75,1.02,7.24c0.07,14.89-12.09,26.71-27.17,26.71S114,174.4,113.27,159.51c-0.22-4.53,0.7-8.82,2.52-12.63
			C116.92,144.48,118.42,142.29,120.2,140.36z M162.44,159.51c-0.11-11.61-9.89-21.17-21.85-21.17c-11.95,0-21.22,9.56-20.72,21.17
			c0.49,11.4,10.26,20.49,21.83,20.49C153.27,180,162.55,170.91,162.44,159.51z"/>
		<g>
			
				<radialGradient id="SVGID_00000011747814369295991690000009692652649014133409_" cx="149.7202" cy="168.4877" r="21.0824" gradientUnits="userSpaceOnUse">
				<stop  offset="0" style="stop-color:#6E7EFF"/>
				<stop  offset="1" style="stop-color:#0077F5"/>
			</radialGradient>
			<path style="fill:url(#SVGID_00000011747814369295991690000009692652649014133409_);" d="M140.59,138.33
				c11.95,0,21.73,9.56,21.85,21.17c0.11,11.4-9.17,20.49-20.74,20.49c-11.57,0-21.33-9.09-21.83-20.49
				C119.37,147.9,128.64,138.33,140.59,138.33z"/>
		</g>
		<g>
			<path class="st14" d="M228.87,146.98l23.47-3.96c1.74-0.29,2.99-1.91,2.8-3.63c-0.19-1.71-1.76-2.87-3.5-2.57l-23.58,4
				c-1.73,0.29-2.95,1.92-2.72,3.62C225.56,146.13,227.14,147.27,228.87,146.98"/>
			<path class="st14" d="M121.94,140.82l-23.58-4c-1.74-0.3-3.31,0.86-3.5,2.57c-0.19,1.71,1.07,3.33,2.8,3.63l23.47,3.96
				c1.73,0.29,3.31-0.85,3.54-2.54C124.9,142.74,123.68,141.11,121.94,140.82"/>
		</g>
		
			<linearGradient id="SVGID_00000072261701464107090870000001173047852730114487_" gradientUnits="userSpaceOnUse" x1="202.1661" y1="171.6153" x2="202.1661" y2="137.134">
			<stop  offset="0" style="stop-color:#000000"/>
			<stop  offset="1" style="stop-color:#757779"/>
		</linearGradient>
		<path style="fill:url(#SVGID_00000072261701464107090870000001173047852730114487_);" d="M209.24,140.85
			c-10.51,0-19.17,8.44-19.29,18.66c-0.06,5.13,2.05,9.74,5.48,13.02l18.94-30.95C212.75,141.11,211.03,140.85,209.24,140.85z"/>
		
			<linearGradient id="SVGID_00000059290021788157882920000009334734691192417703_" gradientUnits="userSpaceOnUse" x1="133.0124" y1="171.6527" x2="133.0124" y2="137.1296">
			<stop  offset="0" style="stop-color:#000000"/>
			<stop  offset="1" style="stop-color:#757779"/>
		</linearGradient>
		<path style="fill:url(#SVGID_00000059290021788157882920000009334734691192417703_);" d="M140.66,140.85
			c-10.51,0-18.72,8.44-18.29,18.66c0.18,4.38,1.93,8.38,4.67,11.5l16.65-29.89C142.69,140.95,141.68,140.85,140.66,140.85z"/>
		
			<radialGradient id="SVGID_00000013173929905978188120000016641764149036366209_" cx="208.7678" cy="159.3288" r="15.1783" gradientUnits="userSpaceOnUse">
			<stop  offset="0.1737" style="stop-color:#000000"/>
			<stop  offset="1" style="stop-color:#757779"/>
		</radialGradient>
		<polygon style="fill:url(#SVGID_00000013173929905978188120000016641764149036366209_);" points="217.59,171.47 209.77,162.18 
			210.17,174.32 208.25,162.35 202.38,173.23 206.87,161.77 196.25,168.49 205.98,160.58 193.4,161.3 205.84,159.1 194.66,153.54 
			206.47,157.72 199.73,147.31 207.72,156.82 207.29,144.34 209.24,156.64 215.25,145.47 210.63,157.23 221.42,150.39 
			211.51,158.43 224.13,157.71 211.65,159.92 222.71,165.42 211.01,161.29 		"/>
		
			<radialGradient id="SVGID_00000042696794439124118030000010469572519343105702_" cx="141.1757" cy="159.3288" r="15.13" gradientUnits="userSpaceOnUse">
			<stop  offset="0.1737" style="stop-color:#000000"/>
			<stop  offset="1" style="stop-color:#757779"/>
		</radialGradient>
		<polygon style="fill:url(#SVGID_00000042696794439124118030000010469572519343105702_);" points="150.63,171.47 142.32,162.18 
			143.36,174.32 140.81,162.35 135.52,173.23 139.4,161.77 129.13,168.49 138.45,160.58 125.91,161.3 138.22,159.1 126.75,153.54 
			138.79,157.72 131.49,147.31 139.98,156.82 138.89,144.34 141.5,156.64 146.92,145.47 142.92,157.23 153.35,150.39 143.86,158.43 
			156.44,157.71 144.08,159.92 155.43,165.42 143.52,161.29 		"/>
	</g>
	<path class="st6" d="M239.14,238.77c-13.35,30.37-43.98,44.64-43.98,44.64s0.2-1.42,0.71-10.55c0.5-9.14-4.06-25.17-13.98-29.62
		c0,0,19.35,1.55,17.97,31.2C199.86,274.43,223.64,263.23,239.14,238.77z"/>
	<path class="st6" d="M110.86,238.77c13.35,30.37,43.98,44.64,43.98,44.64s-0.2-1.42-0.71-10.55c-0.5-9.14,4.06-25.17,13.98-29.62
		c0,0-19.35,1.55-17.97,31.2C150.14,274.43,126.36,263.23,110.86,238.77z"/>
	<g>
		
			<linearGradient id="SVGID_00000042736590899853449670000002287272235359449989_" gradientUnits="userSpaceOnUse" x1="182.1224" y1="242.3111" x2="182.1224" y2="244.6296">
			<stop  offset="0" style="stop-color:#0087FF"/>
			<stop  offset="1" style="stop-color:#9635EE"/>
		</linearGradient>
		<path style="fill:url(#SVGID_00000042736590899853449670000002287272235359449989_);" d="M182.35,242.21l-0.45,1.03
			C181.9,242.91,182.04,242.58,182.35,242.21z"/>
	</g>
</g>
</svg>
